<?xml version="1.0" encoding="utf-8"?>
<!-- Generator: Adobe Illustrator 23.0.1, SVG Export Plug-In . SVG Version: 6.00 Build 0)  -->
<svg version="1.1" id="Layer_1" xmlns="http://www.w3.org/2000/svg" xmlns:xlink="http://www.w3.org/1999/xlink" x="0px" y="0px"
	 viewBox="0 0 512 512" style="enable-background:new 0 0 512 512;" xml:space="preserve">
<style type="text/css">
	.st0{fill:#002CA8;}
</style>
<path class="st0" d="M396.4,123.8L496,87.4L256,1l-97.7,35.2l238.4,86.6L396.4,123.8z"/>
<path class="st0" d="M114.2,52.1L19.1,86.3L256.1,175l98-35.8L114.2,52.1z"/>
<path class="st0" d="M271,364.9c16.4-57.9,69.8-100.5,132.9-100.5c43.7,0,82.7,20.4,108.1,52.2l0-203l-241,87.9V364.9z"/>
<path class="st0" d="M271,503.1l28.5-10.3c-13.1-15.1-22.9-33-28.5-52.7V503.1z"/>
<path class="st0" d="M0,416.3l241,86.8V201.4L0,111.2V416.3z"/>
<path class="st0" d="M403.3,293.4c-60,0-108.7,48.7-108.7,108.7s48.7,108.7,108.7,108.7c60,0,108.7-48.7,108.7-108.7
	S463.3,293.4,403.3,293.4z M404.9,448.7l-43.4-43.4l21.2-21.2l14.8,14.8l21.6-40.4l26.4,14.2L404.9,448.7z"/>
</svg>
